<svg xmlns="http://www.w3.org/2000/svg" viewBox="0 0 512 512">
  <defs>
    <linearGradient id="g" x1="0" y1="0" x2="1" y2="1">
      <stop offset="0%" stop-color="#7c9cff"/>
      <stop offset="100%" stop-color="#5fd7a4"/>
    </linearGradient>
  </defs>
  <rect width="512" height="512" rx="96" fill="#0b0d12"/>
  <g fill="none" stroke="url(#g)" stroke-width="14" stroke-linecap="round">
    <circle cx="256" cy="256" r="22" fill="url(#g)"/>
    <circle cx="128" cy="160" r="18" fill="url(#g)"/>
    <circle cx="384" cy="160" r="18" fill="url(#g)"/>
    <circle cx="128" cy="352" r="18" fill="url(#g)"/>
    <circle cx="384" cy="352" r="18" fill="url(#g)"/>
    <circle cx="256" cy="96" r="14" fill="url(#g)"/>
    <circle cx="256" cy="416" r="14" fill="url(#g)"/>
    <line x1="256" y1="256" x2="128" y2="160"/>
    <line x1="256" y1="256" x2="384" y2="160"/>
    <line x1="256" y1="256" x2="128" y2="352"/>
    <line x1="256" y1="256" x2="384" y2="352"/>
    <line x1="256" y1="256" x2="256" y2="96"/>
    <line x1="256" y1="256" x2="256" y2="416"/>
    <line x1="128" y1="160" x2="384" y2="160" opacity="0.4"/>
    <line x1="128" y1="352" x2="384" y2="352" opacity="0.4"/>
  </g>
</svg>
